<?xml version="1.0" encoding="UTF-8" standalone="no"?>
<!-- Created with Inkscape (http://www.inkscape.org/) -->
<svg
   xmlns:svg="http://www.w3.org/2000/svg"
   xmlns="http://www.w3.org/2000/svg"
   xmlns:xlink="http://www.w3.org/1999/xlink"
   version="1.0"
   width="200"
   height="200"
   id="svg2">
  <defs
     id="defs4">
    <linearGradient
       id="linearGradient3234">
      <stop
         id="stop3236"
         style="stop-color:#ffffff;stop-opacity:1"
         offset="0" />
      <stop
         id="stop3238"
         style="stop-color:#eeeeee;stop-opacity:0"
         offset="1" />
    </linearGradient>
    <linearGradient
       x1="90"
       y1="100"
       x2="90"
       y2="50"
       id="linearGradient3240"
       xlink:href="#linearGradient3234"
       gradientUnits="userSpaceOnUse" />
  </defs>
  <g
     id="layer1">
    <rect
       width="199.98015"
       height="199.99742"
       rx="4.999999"
       ry="4.9999337"
       x="0"
       y="0"
       id="rect3991"
       style="opacity:0.94756554;fill:#000000;stroke:#e6e6e6;stroke-width:1;stroke-linecap:butt;stroke-linejoin:round;stroke-miterlimit:4;stroke-dasharray:none" />
    <path
       d="M 49.999999,30 L 140,30 C 142.77,30 145,32.22997 145,34.999934 L 164,110 C 164,112.76996 162.77,120 160,120 L 29.999999,120 C 27.23,120 26,112.76996 26,110 L 45,34.999934 C 45,32.22997 47.23,30 49.999999,30 z"
       id="rect2457"
       style="fill:#f2f2f2;stroke:#e6e6e6;stroke-width:1;stroke-linecap:butt;stroke-linejoin:round;stroke-miterlimit:4" />
    <text
       x="94"
       y="154"
       id="text3242"
       xml:space="preserve"
       style="font-size:40px;font-style:normal;font-weight:normal;text-align:center;text-anchor:middle;fill:#ffffff;fill-opacity:1;stroke:#000000;stroke-width:1px;stroke-linecap:butt;stroke-linejoin:miter;stroke-opacity:1;font-family:Bitstream Vera Sans"><tspan
         x="94"
         y="154"
         id="tspan3244"
         style="font-style:normal;font-variant:normal;font-weight:normal;font-stretch:normal;text-align:center;text-anchor:middle;fill:#ffffff;stroke:#000000;font-family:Arabia;-inkscape-font-specification:Arabia">WHITE</tspan></text>
    <g
       transform="matrix(1.61,0,0,1,-211.6,40)"
       id="g3839"
       style="fill:#cccccc;stroke:#cccccc;stroke-width:0.78811044">
      <g
         transform="matrix(0.7166916,-0.4218415,0.1933354,0.8514246,-10.639572,123.67573)"
         id="g3905"
         style="stroke-width:0.9475618">
        <path
           d="M 210,30 A 20,20 0 1 1 170,30 A 20,20 0 1 1 210,30 z"
           transform="translate(82.519965,-3.9285714)"
           id="path3821"
           style="opacity:0.96509364;fill:#cccccc;stroke:#cccccc;stroke-width:0.9475618;stroke-linecap:butt;stroke-linejoin:round;stroke-miterlimit:4;stroke-dasharray:none" />
        <path
           d="M 272.51996,6.0714286 L 272.51996,-3.9285714 L 272.51996,-3.9285714 L 272.51996,-3.9285714"
           id="path3823"
           style="fill:#cccccc;fill-rule:evenodd;stroke:#cccccc;stroke-width:0.9475618px;stroke-linecap:butt;stroke-linejoin:miter;stroke-opacity:1" />
        <path
           d="M 252.51996,26.071429 L 242.51996,26.071429"
           id="path3825"
           style="fill:#cccccc;fill-rule:evenodd;stroke:#cccccc;stroke-width:0.9475618px;stroke-linecap:butt;stroke-linejoin:miter;stroke-opacity:1" />
        <path
           d="M 252.51996,6.0714286 L 262.51996,16.071429"
           id="path3827"
           style="fill:#cccccc;fill-rule:evenodd;stroke:#cccccc;stroke-width:0.9475618px;stroke-linecap:butt;stroke-linejoin:miter;stroke-opacity:1" />
        <path
           d="M 252.51996,46.071429 L 262.51996,36.071429"
           id="path3829"
           style="fill:#cccccc;fill-rule:evenodd;stroke:#cccccc;stroke-width:0.9475618px;stroke-linecap:butt;stroke-linejoin:miter;stroke-opacity:1" />
        <path
           d="M 292.51996,46.071429 L 282.51996,36.071429"
           id="path3831"
           style="fill:#cccccc;fill-rule:evenodd;stroke:#cccccc;stroke-width:0.9475618px;stroke-linecap:butt;stroke-linejoin:miter;stroke-opacity:1" />
        <path
           d="M 272.51996,56.071429 L 272.51996,46.071429 L 272.51996,46.071429 L 272.51996,46.071429"
           id="path3833"
           style="fill:#cccccc;fill-rule:evenodd;stroke:#cccccc;stroke-width:0.9475618px;stroke-linecap:butt;stroke-linejoin:miter;stroke-opacity:1" />
        <path
           d="M 302.51996,26.071429 L 292.51996,26.071429 L 292.51996,26.071429 L 292.51996,26.071429"
           id="path3835"
           style="fill:#cccccc;fill-rule:evenodd;stroke:#cccccc;stroke-width:0.9475618px;stroke-linecap:butt;stroke-linejoin:miter;stroke-opacity:1" />
        <path
           d="M 282.51996,16.071429 L 292.51996,6.0714286 L 292.51996,6.0714286 L 292.51996,6.0714286"
           id="path3837"
           style="fill:#cccccc;fill-rule:evenodd;stroke:#cccccc;stroke-width:0.9475618px;stroke-linecap:butt;stroke-linejoin:miter;stroke-opacity:1" />
        <path
           d="M 80,60 L 71.106159,56.984012 L 63.579605,62.600735 L 63.699632,53.210198 L 56.031978,47.787683 L 65,45 L 67.787683,36.031978 L 73.210198,43.699632 L 82.600735,43.579605 L 76.984012,51.106159 L 80,60 z"
           transform="matrix(0.621118,0,0,1,211.46406,-43.928571)"
           id="path3862"
           style="opacity:0.96509364;fill:#cccccc;stroke:#cccccc;stroke-width:1.20232105;stroke-linecap:butt;stroke-linejoin:round;stroke-miterlimit:4;stroke-dasharray:none" />
        <path
           d="M 100,60 L 91.106159,56.984012 L 83.579605,62.600735 L 83.699632,53.210198 L 76.031978,47.787683 L 85,45 L 87.787683,36.031978 L 93.210198,43.699632 L 102.60074,43.579605 L 96.984012,51.106159 L 100,60 z"
           transform="matrix(0.621118,0,0,1,211.46406,-43.928571)"
           id="path3864"
           style="opacity:0.96509364;fill:#cccccc;stroke:#cccccc;stroke-width:1.20232105;stroke-linecap:butt;stroke-linejoin:round;stroke-miterlimit:4;stroke-dasharray:none" />
        <path
           d="M 90,60 L 81.106159,56.984011 L 73.579605,62.600735 L 73.699632,53.210198 L 66.031978,47.787683 L 75,45 L 77.787683,36.031978 L 83.210198,43.699632 L 92.600735,43.579605 L 86.984011,51.106159 L 90,60 z"
           transform="matrix(0.621118,0,0,1,211.46406,-43.928571)"
           id="path3866"
           style="opacity:0.96509364;fill:#cccccc;stroke:#cccccc;stroke-width:1.20232105;stroke-linecap:butt;stroke-linejoin:round;stroke-miterlimit:4;stroke-dasharray:none" />
        <path
           d="M 80,80 L 71.106159,76.984011 L 63.579605,82.600735 L 63.699632,73.210198 L 56.031978,67.787683 L 65,65 L 67.787683,56.031978 L 73.210198,63.699632 L 82.600735,63.579605 L 76.984011,71.106159 L 80,80 z"
           transform="matrix(0.621118,0,0,1,211.46406,-43.928571)"
           id="path3868"
           style="opacity:0.96509364;fill:#cccccc;stroke:#cccccc;stroke-width:1.20232105;stroke-linecap:butt;stroke-linejoin:round;stroke-miterlimit:4;stroke-dasharray:none" />
        <path
           d="M 60,60 L 54.045085,62.938926 L 53.09017,69.510565 L 48.454915,64.755283 L 41.90983,65.877853 L 45,60 L 41.90983,54.122147 L 48.454915,55.244717 L 53.09017,50.489435 L 54.045085,57.061074 L 60,60 z"
           transform="matrix(0.621118,0,0,1,211.46406,-43.928571)"
           id="path3870"
           style="opacity:0.96509364;fill:#cccccc;stroke:#cccccc;stroke-width:1.20232105;stroke-linecap:butt;stroke-linejoin:round;stroke-miterlimit:4;stroke-dasharray:none" />
        <path
           d="M 70,90 L 58.167233,81.029096 L 44.06904,85.690905 L 48.94435,71.665113 L 40.154125,59.697513 L 55,60 L 63.665535,47.941808 L 67.96548,62.154547 L 82.1113,66.669774 L 69.922938,75.151243 L 70,90 z"
           transform="matrix(0.621118,0,0,1,211.46406,-43.928571)"
           id="path3872"
           style="opacity:0.96509364;fill:#cccccc;stroke:#cccccc;stroke-width:1.20232105;stroke-linecap:butt;stroke-linejoin:round;stroke-miterlimit:4;stroke-dasharray:none" />
        <path
           d="M 90,70 L 75.151244,69.922937 L 66.669775,82.1113 L 62.154548,67.96548 L 47.941808,63.665535 L 60,55 L 59.697513,40.154125 L 71.665112,48.94435 L 85.690905,44.06904 L 81.029096,58.167232 L 90,70 z"
           transform="matrix(0.621118,0,0,1,211.46406,-43.928571)"
           id="path3874"
           style="opacity:0.96509364;fill:#cccccc;stroke:#cccccc;stroke-width:1.20232105;stroke-linecap:butt;stroke-linejoin:round;stroke-miterlimit:4;stroke-dasharray:none" />
        <path
           d="M 100,50 L 88.09017,55.877853 L 86.18034,69.02113 L 76.90983,59.510565 L 63.81966,61.755705 L 70,50 L 63.81966,38.244295 L 76.90983,40.489435 L 86.18034,30.97887 L 88.09017,44.122147 L 100,50 z"
           transform="matrix(0.621118,0,0,1,211.46406,-43.928571)"
           id="path3876"
           style="opacity:0.96509364;fill:#cccccc;stroke:#cccccc;stroke-width:1.20232105;stroke-linecap:butt;stroke-linejoin:round;stroke-miterlimit:4;stroke-dasharray:none" />
        <path
           d="M 110,60 L 101.10616,56.984011 L 93.579605,62.600735 L 93.699632,53.210198 L 86.031978,47.787683 L 95,45 L 97.787683,36.031978 L 103.2102,43.699632 L 112.60074,43.579605 L 106.98401,51.106159 L 110,60 z"
           transform="matrix(0.621118,0,0,1,211.46406,-43.928571)"
           id="path3878"
           style="opacity:0.96509364;fill:#cccccc;stroke:#cccccc;stroke-width:1.20232105;stroke-linecap:butt;stroke-linejoin:round;stroke-miterlimit:4;stroke-dasharray:none" />
        <path
           d="M 120,50 L 108.09017,55.877853 L 106.18034,69.02113 L 96.90983,59.510565 L 83.81966,61.755705 L 90,50 L 83.81966,38.244295 L 96.90983,40.489435 L 106.18034,30.97887 L 108.09017,44.122147 L 120,50 z"
           transform="matrix(0.621118,0,0,1,211.46406,-43.928571)"
           id="path3880"
           style="opacity:0.96509364;fill:#cccccc;stroke:#cccccc;stroke-width:1.20232105;stroke-linecap:butt;stroke-linejoin:round;stroke-miterlimit:4;stroke-dasharray:none" />
        <path
           d="M 130,60 L 127.06107,54.045085 L 120.48943,53.09017 L 125.24472,48.454915 L 124.12215,41.90983 L 130,45 L 135.87785,41.90983 L 134.75528,48.454915 L 139.51057,53.09017 L 132.93893,54.045085 L 130,60 z"
           transform="matrix(0.621118,0,0,1,211.46406,-43.928571)"
           id="path3882"
           style="opacity:0.96509364;fill:#cccccc;stroke:#cccccc;stroke-width:1.20232105;stroke-linecap:butt;stroke-linejoin:round;stroke-miterlimit:4;stroke-dasharray:none" />
        <path
           d="M 160,70 L 148.09017,75.877853 L 146.18034,89.02113 L 136.90983,79.510565 L 123.81966,81.755705 L 130,70 L 123.81966,58.244295 L 136.90983,60.489435 L 146.18034,50.97887 L 148.09017,64.122147 L 160,70 z"
           transform="matrix(0.621118,0,0,1,207.0275,-52.857142)"
           id="path3884"
           style="opacity:0.96509364;fill:#cccccc;stroke:#cccccc;stroke-width:1.20232105;stroke-linecap:butt;stroke-linejoin:round;stroke-miterlimit:4;stroke-dasharray:none" />
        <path
           d="M 140,60 L 128.09017,65.877853 L 126.18034,79.02113 L 116.90983,69.510565 L 103.81966,71.755705 L 110,60 L 103.81966,48.244295 L 116.90983,50.489435 L 126.18034,40.97887 L 128.09017,54.122147 L 140,60 z"
           transform="matrix(0.621118,0,0,1,211.46406,-43.928571)"
           id="path3886"
           style="opacity:0.96509364;fill:#cccccc;stroke:#cccccc;stroke-width:1.20232105;stroke-linecap:butt;stroke-linejoin:round;stroke-miterlimit:4;stroke-dasharray:none" />
        <path
           d="M 120,40 C 119.91832,40.239344 119.63707,40.007979 119.60219,39.86424 C 119.50768,39.474717 119.92983,39.197311 120.27152,39.204388 C 120.88273,39.217047 121.26127,39.843504 121.19342,40.407279 C 121.09385,41.234641 120.23967,41.726425 119.45696,41.591224 C 118.41373,41.411023 117.80579,40.321877 118.01097,39.321202 C 118.26916,38.061955 119.59635,37.336692 120.81456,37.613164 C 122.28997,37.948008 123.13317,39.514812 122.78464,40.950317 C 122.37392,42.642009 120.56658,43.603502 118.91392,43.182448 C 117.00587,42.696325 115.92585,40.647875 116.41975,38.778164 C 116.98095,36.65368 119.2709,35.454973 121.3576,36.02194 C 123.69855,36.657991 125.01606,39.189723 124.37587,41.493355 C 123.66513,44.050823 120.89142,45.487218 118.37089,44.773672 C 115.59688,43.988369 114.04153,40.972523 114.82852,38.235126 C 115.6883,35.24456 118.94639,33.570211 121.90063,34.430715 C 125.10778,35.364885 126.90117,38.865326 125.96709,42.036393 C 124.95858,45.460131 121.21572,47.372597 117.82785,46.364897 C 114.1875,45.282102 112.15594,41.296763 113.2373,37.692088 C 114.39434,33.835129 118.62221,31.684437 122.44367,32.839491 C 126.51725,34.070751 128.78709,38.541192 127.55831,42.579431 C 126.25287,46.869646 121.53982,49.25864 117.28481,47.956121 C 112.77796,46.576508 110.26979,41.620822 111.64607,37.14905 C 113.09983,32.425554 118.29818,29.798203 122.98671,31.248267 C 127.92685,32.776151 130.6734,38.217188 129.14954,43.122469 C 127.91293,47.103086 124.15424,49.888835 120,50"
           transform="matrix(0.621118,0,0,1,194.20584,-42.5)"
           id="path3888"
           style="fill:none;fill-rule:evenodd;stroke:#cccccc;stroke-width:1.20232105px;stroke-linecap:butt;stroke-linejoin:miter;stroke-opacity:1" />
        <path
           d="M 130,50 C 130.15766,50.321026 129.64505,50.370909 129.46643,50.262046 C 128.9824,49.967033 129.12714,49.267482 129.47591,48.932868 C 130.09977,48.334321 131.10477,48.582238 131.6007,49.213863 C 132.32849,50.140798 131.9661,51.486754 131.04818,52.134264 C 129.82475,52.997293 128.12767,52.51608 127.33217,51.310228 C 126.33112,49.792787 126.93305,47.740338 128.42773,46.798604 C 130.23798,45.658039 132.64799,46.381648 133.73496,48.16568 C 135.01593,50.2681 134.17008,53.036929 132.09637,54.268528 C 129.70218,55.690457 126.57371,54.722024 125.19791,52.358411 C 123.63463,49.672724 124.72588,46.184065 127.37954,44.66434 C 130.35656,42.959438 134.20579,44.173667 135.86923,47.117498 C 137.71595,50.385707 136.37863,54.595813 133.14455,56.402792 C 129.58524,58.391489 125.01405,56.930982 123.06364,53.406594 C 120.93286,49.55625 122.51661,44.623807 126.33136,42.530076 C 130.47268,40.257107 135.76651,41.964166 138.00349,46.069315 C 140.41871,50.501563 138.58831,56.156886 134.19273,58.537056 C 129.46959,61.094597 123.45268,59.140816 120.92938,54.454776 C 118.22947,49.440769 120.30666,43.062211 125.28318,40.395813 C 130.58803,37.553497 137.3283,39.754114 140.13775,45.021132 C 143.12251,50.6168 140.79845,57.718839 135.24091,60.671319 C 129.35444,63.798551 121.89059,61.351019 118.79511,55.502959 C 115.52538,49.325701 118.0964,41.500004 124.235,38.261549 C 130.70303,34.849298 138.89061,37.543803 142.27202,43.97295 C 145.01602,49.190177 144.04307,55.734618 139.99998,60.000015"
           transform="matrix(0.621118,0,0,1,202.81278,-45.357142)"
           id="path3890"
           style="fill:none;fill-rule:evenodd;stroke:#cccccc;stroke-width:1.20232105px;stroke-linecap:butt;stroke-linejoin:miter;stroke-opacity:1" />
        <path
           d="M 70,40 C 70.157663,40.321026 69.645049,40.370909 69.466434,40.262046 C 68.982399,39.967033 69.12714,39.267482 69.475909,38.932868 C 70.099775,38.334321 71.104774,38.582238 71.600698,39.213863 C 72.328487,40.140798 71.966097,41.486754 71.048183,42.134264 C 69.824748,42.997293 68.127667,42.51608 67.33217,41.310228 C 66.331118,39.792787 66.933045,37.740338 68.427726,36.798604 C 70.237984,35.658039 72.647985,36.381648 73.734962,38.16568 C 75.015926,40.2681 74.170078,43.036929 72.096365,44.268528 C 69.702182,45.690457 66.573714,44.722024 65.197906,42.358411 C 63.634627,39.672724 64.725877,36.184065 67.379543,34.66434 C 70.356556,32.959438 74.205794,34.173667 75.869226,37.117498 C 77.71595,40.385707 76.378626,44.595813 73.144548,46.402792 C 69.585235,48.391489 65.014045,46.930982 63.063642,43.406594 C 60.932855,39.55625 62.516611,34.623807 66.331361,32.530076 C 70.472679,30.257107 75.766508,31.964166 78.00349,36.069315 C 80.418715,40.501563 78.588312,46.156886 74.192731,48.537056 C 69.469588,51.094597 63.452684,49.140816 60.929378,44.454776 C 58.229471,39.440769 60.306658,33.062211 65.283178,30.395813 C 70.588026,27.553497 77.328298,29.754114 80.137753,35.021132 C 83.122512,40.6168 80.798446,47.718839 75.240913,50.671319 C 69.354443,53.798551 61.890594,51.351019 58.795115,45.502959 C 55.525385,39.325701 58.096397,31.500004 64.234995,28.261549 C 70.703028,24.849298 78.890606,27.543803 82.272017,33.97295 C 85.016019,39.190177 84.043066,45.734618 79.999985,50.000015"
           transform="matrix(0.8123811,0.9110193,-0.7113062,1.6441469,223.10838,-118.44901)"
           id="path3892"
           style="fill:none;fill-rule:evenodd;stroke:#cccccc;stroke-width:0.67277658px;stroke-linecap:butt;stroke-linejoin:miter;stroke-opacity:1" />
        <path
           d="M 279.56522,3.2142856 L 282.89263,-7.5000004 L 287.32919,-12.142857 L 287.55102,-3.9285714 L 283.33629,9.2857136 L 279.56522,3.2142856 z"
           id="path3894"
           style="fill:#cccccc;fill-rule:evenodd;stroke:#cccccc;stroke-width:0.94756168px;stroke-linecap:butt;stroke-linejoin:miter;stroke-opacity:1" />
        <path
           d="M 305.51908,17.142857 C 305.37691,18.112206 305.74114,20.715785 305.96273,22.142857 C 306.24052,23.931795 306.62822,24.892737 306.62822,26.428572 C 306.62822,27.953125 305.07952,28.207692 304.40994,29.285715 C 303.51044,30.733912 303.02336,31.116195 302.19166,31.785715 C 301.50369,32.33953 301.06677,34.030002 300.86069,35.357143 C 300.51646,37.574 300.83579,38.174196 301.52617,39.285715 C 301.931,39.937484 301.2636,41.166142 301.52617,42.857143 C 301.79906,44.614539 302.07375,45.881589 302.63531,46.785715 C 303.13134,47.58431 304.13574,46.512882 304.63176,45.714286 C 305.2069,44.788313 302.98074,46.031892 302.19166,45.714286 C 301.07953,45.266656 301.52173,47.885801 301.30435,49.285715 C 301.05529,50.889615 303.05755,49.066491 303.3008,47.5 C 303.52232,46.073427 302.19341,44.291354 301.96983,43.571429 C 301.39852,41.731793 301.40026,40.868707 300.63886,39.642857 C 299.54331,37.879023 299.42958,38.294905 298.19876,39.285715 C 297.02352,40.231783 297.03914,40.556033 296.64596,40.714286 C 295.74713,41.076067 295.10469,38.93321 294.20586,38.571429 C 293.00739,38.089045 292.23965,38.189941 291.32209,38.928572 C 290.62535,39.48945 290.62393,42.710474 290.43478,43.928572 C 290.1333,45.870139 289.64408,46.520669 289.32564,48.571429 C 289.0814,50.14435 287.31841,49.642857 286.44188,49.642857 C 283.59573,49.642857 280.34573,49.285715 277.34694,49.285715 C 275.15287,49.285715 274.37988,49.531335 273.79769,50 C 273.01072,50.633509 272.51761,52.101891 271.57941,52.857143 C 270.34447,53.851272 271.11689,55.296377 271.57941,56.785719 C 272.06596,58.352399 273.08185,59.423749 273.79769,59.999999 C 274.80592,60.811619 269.81964,48.642778 270.47028,47.857148 C 271.42613,46.702938 276.00745,56.057705 275.79414,55.714286 C 275.20101,54.75934 273.92632,55.037514 273.13221,55.357143 C 272.29903,55.692498 271.81419,57.815469 271.57941,58.571429 C 271.04959,60.277449 271.81778,62.526629 272.2449,63.214289 C 273.3299,64.961149 272.78826,63.928569 271.35759,63.928569 C 270.10615,63.928569 268.71072,63.743939 268.252,63.928569 C 267.64331,64.173569 267.20162,65.167919 266.92103,66.071429 C 266.88796,66.177909 266.92103,66.309529 266.92103,66.428569 C 266.92103,68.161929 266.5152,62.978939 266.03372,61.428569 C 265.57077,59.937889 264.57865,58.371629 264.48092,58.214289 C 263.73034,57.005839 262.52001,56.800019 261.59716,56.428569 C 260.97321,56.177429 261.22309,56.458899 260.04437,53.928572 C 258.89008,51.450715 257.32664,49.553027 256.05146,47.5 C 255.17168,46.083556 254.55967,44.839273 254.05501,43.214286 C 253.178,40.390308 249.73812,38.489183 248.06566,37.142857 C 246.20007,35.641059 245.72317,35.814279 244.96007,36.428572 C 243.91562,37.269359 243.52116,37.480893 243.18545,39.642857 C 242.87451,41.645267 244.07276,40.047209 244.07276,37.857143 C 244.07276,35.526023 243.81441,34.8824 243.40728,33.571429 C 242.9229,32.011722 242.76369,30.141022 242.51996,28.571429 C 242.24514,26.80153 242.12315,24.944506 241.85448,23.214286 C 241.58681,21.490462 243.10451,21.014719 243.85093,20.714286 C 244.31635,20.526955 245.63786,22.142857 246.73469,22.142857 C 248.26594,22.142857 249.40063,21.068207 250.7276,20 C 251.7914,19.143638 252.95015,19.016135 254.05501,18.571429 C 255.13937,18.134976 257.17775,20.027611 257.60426,20.714286 C 258.31463,21.857983 258.41066,22.5 260.04437,22.5 C 262.8415,22.5 265.43154,20.714286 268.252,20.714286 C 270.50089,20.714286 272.62464,19.642857 274.90683,19.642857 C 276.00826,19.642857 277.03655,20.357143 278.23425,20.357143 C 279.2939,20.357143 280.61588,20.422892 281.33984,20.714286 C 285.52783,22.399952 289.96378,22.562625 294.20586,23.928572 C 294.7134,24.092002 295.24105,23.928572 295.75865,23.928572 C 298.44005,23.928572 298.32916,25.252167 299.97338,23.928572 C 300.44631,23.547869 300.92296,20.81871 301.30435,20 C 301.72867,19.08912 303.97403,19.642857 304.63176,19.642857 C 306.12539,19.642857 305.78953,18.998287 305.07542,19.285714 C 304.62173,19.468325 305.37119,17.857143 305.51908,17.142857 z"
           id="path3896"
           style="fill:#cccccc;fill-rule:evenodd;stroke:#cccccc;stroke-width:0.94756168px;stroke-linecap:butt;stroke-linejoin:miter;stroke-opacity:1" />
        <path
           d="M 244.51642,6.4285716 C 245.29456,6.2247796 246.47757,4.4927026 247.17835,3.9285716 C 248.33591,2.9967386 249.20958,1.9922866 250.28394,2.8571426 C 251.03179,3.4591626 251.57493,4.5784996 252.05856,5.3571426 C 252.83239,6.6029976 252.8574,7.6444976 253.1677,9.6428566 C 253.56124,12.177228 253.50227,12.453154 252.28039,13.928572 C 251.50409,14.865952 250.42436,15.032766 249.61846,15.357143 C 248.41397,15.841949 247.51186,16.11638 246.51287,15.714286 C 246.23172,15.601123 245.72701,12.081916 245.62555,11.428572 C 245.2392,8.9404666 244.51642,9.2338836 244.51642,6.4285716 z"
           id="path3903"
           style="fill:#cccccc;fill-rule:evenodd;stroke:#cccccc;stroke-width:0.94756168px;stroke-linecap:butt;stroke-linejoin:miter;stroke-opacity:1" />
      </g>
    </g>
    <path
       d="M 26,109.64286 L 164,109.64286 L 146,39.642857 L 44,39.642857 L 26,109.64286 z"
       id="path3232"
       style="opacity:0.94756554;fill:url(#linearGradient3240);fill-opacity:1;fill-rule:evenodd;stroke:none;stroke-width:1px;stroke-linecap:butt;stroke-linejoin:miter;stroke-opacity:1" />
  </g>
</svg>
